<?xml version="1.0" ?><!DOCTYPE svg  PUBLIC '-//W3C//DTD SVG 1.1//EN'  'http://www.w3.org/Graphics/SVG/1.1/DTD/svg11.dtd'><svg id="Lager_1" style="enable-background:new 0 0 256 256;" version="1.1" viewBox="0 0 256 256" xml:space="preserve" xmlns="http://www.w3.org/2000/svg" xmlns:xlink="http://www.w3.org/1999/xlink"><g><g><path d="M21.1,191.8l105.1,60.7c1.1,0.6,2.5,0.6,3.6,0l105.1-60.7c1.1-0.6,1.8-1.8,1.8-3.1V67.3    c0-1.3-0.7-2.5-1.8-3.1L129.8,3.5c-1.1-0.6-2.5-0.6-3.6,0L21.1,64.2c-1.1,0.6-1.8,1.8-1.8,3.1v121.4C19.3,190,20,191.2,21.1,191.8    z" style="fill:#83807E;"/></g><g><polygon points="109.9,180 101.7,183.7 102.6,197.3 111.7,191.8   " style="fill:#B0AEAD;"/><polygon points="146.1,180 154.3,183.7 153.4,197.3 144.3,191.8   " style="fill:#B0AEAD;"/><path d="M175.6,204.6c-3.3-0.9-8.5-1.5-15.3-1.8c-3.4-0.2-6.4-2.2-7.8-5.2c-1.8-3.9-3.4-8.2-3.4-12.6    c0-19.3,29.5-34.9-20-35.4v0c-0.4,0-0.8,0-1.1,0c-0.4,0-0.7,0-1.1,0v0c-49.5,0.5-20,16.1-20,35.4c0,4.4-1.6,8.7-3.4,12.6    c-1.4,3.1-4.4,5.1-7.8,5.2c-6.8,0.3-12,0.8-15.3,1.8c-8,2.2-13.3,6.6-17,11.7l62.8,36.3c1.1,0.6,2.5,0.6,3.6,0l62.8-36.3    C189,211.2,183.6,206.8,175.6,204.6z" style="fill:#E5C6AA;"/><g style="opacity:0.1;"><path d="M149.4,182.5c0.6-4.6,2.6-9,4.6-13c-8.2,7.9-17.4,12.6-25.9,12.6c-8.5,0-17.8-4.9-26-12.9c2,4,4.1,8.5,4.7,13.2     c7,5.5,14.4,12.8,21.3,12.8C135,195.2,142.4,188,149.4,182.5z"/></g><path d="M175.8,116.4c0,35.9-26.5,67.9-47.8,67.6c-21.2-0.3-47.5-33.1-47.8-68.1    C79.8,80,97.3,58.1,128,58.1S175.8,80.5,175.8,116.4z" style="fill:#EFD2B6;"/><path d="M172.1,103.1c-1,10.9-6.9,16.5-8.8,18c-0.3,0.2-0.7,0.1-0.7-0.3c-3.3-19-13.1-30.5-16.8-34.3    c-0.3-0.3-0.9,0-0.8,0.4c5.6,20.5-3.1,35-4.7,37.5c-0.1,0.2-0.5,0.3-0.7,0.1c-10.5-8.4-21.4-29.9-24.8-37    c-0.2-0.5-0.9-0.3-0.9,0.3c1.5,11.6,8.3,24.1,11.1,28.9c0.3,0.4-0.3,0.9-0.7,0.6c-14.7-11.9-22.3-28.1-23.9-31.9    c-0.1-0.3-0.6-0.4-0.8,0l-8,13.3c0,0,0,0.1,0,0.1c-7.4,25.2-6.3,40.2-5.7,44.5c0.1,0.4-0.5,0.7-0.8,0.4    c-16.1-15.5-17.4-31.7-17.1-38.8c0-0.5-0.7-0.7-0.9-0.2c-2.4,5.9-5.2,8.7-6.6,9.9c-0.3,0.3-0.8,0-0.7-0.4    c3.8-52.3,35.6-64.1,44.4-66.4c0.5-0.1,0.4-0.8-0.1-0.9c-4.2-0.6-7.3,0.1-9.2,0.8c-0.4,0.2-0.8-0.4-0.5-0.7    c10.3-10.9,21.2-5.3,23.2-4.1c0.2,0.1,0.4,0.1,0.6-0.1c5.5-6.7,15.6-6,20.2-5.3c0.5,0.1,0.5,0.8,0,0.9c-2.3,0.6-3.9,1.6-4.7,2.3    c-0.3,0.2-0.2,0.7,0.2,0.8c47,6.8,57.7,53.4,59.5,64.2c0.1,0.5-0.6,0.7-0.8,0.3c-4.5-7.2-7.8-9.8-9.3-10.7    c-0.3-0.2-0.7,0.1-0.7,0.4c2.5,25.8-6.5,39.8-10,44.2c-0.3,0.4-0.9,0.1-0.8-0.4C176.9,121.3,172.1,103.1,172.1,103.1" style="fill:#E3E3E3;"/><g><path d="M180.1,204l-24.8-3.1l-19.1,28.7l-7.3,13.6c-0.4,0.6-1.3,0.7-1.6,0l-8.3-13.6l-18.1-28.7L75.9,204     c-7.2,0.9-13.2,4.5-17.3,9.5l67.6,39c1.1,0.6,2.5,0.6,3.6,0l67.6-39C193.3,208.4,187.2,204.8,180.1,204z" style="fill:#7C3E61;"/><g><path d="M114.4,197.3l0.9,19.2c0.1,0.5,0.7,1,0.9,1.5l11.8,25.9c0.1,0.2-0.1,0.4-0.3,0.2l-29.7-40.8      L114.4,197.3z" style="fill:#F1F1F1;"/><path d="M141.6,197.3l-0.9,19.2c-0.1,0.5-0.7,1-0.9,1.5L128,243.9c-0.1,0.2,0.1,0.4,0.3,0.2l29.7-40.8      L141.6,197.3z" style="fill:#F1F1F1;"/><polygon points="101.7,183.7 114.4,197.3 104.4,216.3 95.3,200.9     " style="fill:#E3E3E3;"/><polygon points="154.3,183.7 141.6,197.3 151.6,216.3 160.7,200.9     " style="fill:#E3E3E3;"/></g></g></g></g></svg>