<?xml version="1.0" ?><!DOCTYPE svg  PUBLIC '-//W3C//DTD SVG 1.1//EN'  'http://www.w3.org/Graphics/SVG/1.1/DTD/svg11.dtd'><svg id="Lager_1" style="enable-background:new 0 0 256 256;" version="1.1" viewBox="0 0 256 256" xml:space="preserve" xmlns="http://www.w3.org/2000/svg" xmlns:xlink="http://www.w3.org/1999/xlink"><g><g><path d="M21.1,191.8l105.1,60.7c1.1,0.6,2.5,0.6,3.6,0l105.1-60.7c1.1-0.6,1.8-1.8,1.8-3.1V67.3    c0-1.3-0.7-2.5-1.8-3.1L129.8,3.5c-1.1-0.6-2.5-0.6-3.6,0L21.1,64.2c-1.1,0.6-1.8,1.8-1.8,3.1v121.4C19.3,190,20,191.2,21.1,191.8    z" style="fill:#83807E;"/></g><g><g><path d="M175.6,205c-3.3-0.9-8.5-1.5-15.3-1.8c-3.4-0.2-6.4-2.2-7.8-5.2c-1.8-3.9-3.4-8.2-3.4-12.6     c0-19.3,29.5-34.9-20-35.4v0c-0.4,0-0.8,0-1.1,0c-0.4,0-0.7,0-1.1,0v0c-49.5,0.5-20,16.1-20,35.4c0,4.4-1.6,8.7-3.4,12.6     c-1.4,3.1-4.4,5.1-7.8,5.2c-6.8,0.3-12,0.8-15.3,1.8c-7.8,2.2-13.1,6.4-16.7,11.3l62.6,36.1c1.1,0.6,2.5,0.6,3.6,0l62.6-36.1     C188.7,211.5,183.5,207.2,175.6,205z" style="fill:#E5C6AA;"/><g style="opacity:0.1;"><path d="M149.4,183c0.6-4.6,2.6-9,4.6-13c-8.2,7.9-17.4,12.6-25.9,12.6c-8.5,0-17.8-4.9-26-12.9c2,4,4.1,8.5,4.7,13.2      c7,5.5,14.4,12.8,21.3,12.8C135,195.7,142.4,188.4,149.4,183z"/></g><path d="M175.5,116.8c0,35.9-26.2,67.9-47.5,67.6c-21.2-0.3-47.5-33.1-47.8-68.1     C79.8,80.4,97.3,58.6,128,58.6S175.5,80.9,175.5,116.8z" style="fill:#EFD2B6;"/><path d="M180.1,204.2c-1.9-0.5-4.3-0.9-7.2-1.2l-36.3,37.2c-4.5,4.5-12.2,4.5-16.7,0l-36.3-37.3     c-3.2,0.3-5.8,0.7-7.8,1.2c-7.4,1.9-12.7,5.5-16.6,9.6l67,38.7c1.1,0.6,2.5,0.6,3.6,0l66.9-38.6     C192.9,209.7,187.6,206.1,180.1,204.2z" style="fill:#B0AEAD;"/></g><path d="M181,233.5c-30.5-18.8-12.3-54.8-2.2-83.1c10.2-28.5-4.8-86.2-38.4-92c-34.4-6-52.2,11.8-60.5,32.4    c-6.9,17-4.9,45.3-0.4,63.5c1,3.8,2.2,7.2,3.1,10c2.8,8.7,6.6,15.3,10.7,20.7c4.8,6.6,3.8,9.3,3.8,14.7c-0.1-0.1,5-0.6,4.5-5.4    c11.3,11.6,20.4,16.9,15.1,37c-0.1,0.5,0.6,0.8,0.9,0.3c9.5-19.5,0.5-32.1-1.8-34.9c1.4,1,5.1,4,11.3,16.5    c0.2,0.4,0.9,0.3,0.9-0.2c-1-18.5-15.3-28.8-25.3-45c-10.4-16.8-14.5-39,1.8-70.6c0.1-0.3,0.5-0.2,0.7,0    c2.7,3.3,22.9,19.1,53.5,33.3c0.2,0.1,0.3,0.3,0.3,0.5c-0.8,4-8.8,42.3-19.5,55.9c-0.2,0.3,0,0.8,0.4,0.7c4.4-0.2,7.4-2.1,9.3-3.9    c0.4-0.3,0.9,0.1,0.7,0.5c-2.5,5-7.6,14-13.7,19.8c-0.3,0.3,0,0.9,0.4,0.8c1.9-0.5,3.4-1.3,4.6-2.1c-1.1,3.8-1.1,9.2,2.4,16.2    c0.2,0.4,0.9,0.3,0.9-0.2c0.2-9.4,2.3-12.3,3.5-13.2c0.3-0.3,0.8,0.1,0.7,0.5c-1.3,4.9-6.5,28.1,15,36.7c0.5,0.2,0.9-0.4,0.5-0.8    c-10.2-8.9-8-20.2-6.7-24.3c0.1-0.4,0.8-0.4,0.9,0c1,4.6,5.3,17.2,22.6,16.7C181.2,234.4,181.4,233.8,181,233.5z" style="fill:#442C15;"/></g></g></svg>