<?xml version="1.0" ?><!DOCTYPE svg  PUBLIC '-//W3C//DTD SVG 1.1//EN'  'http://www.w3.org/Graphics/SVG/1.1/DTD/svg11.dtd'><svg id="Lager_1" style="enable-background:new -169 292.9 256 256;" version="1.1" viewBox="-169 292.9 256 256" xml:space="preserve" xmlns="http://www.w3.org/2000/svg" xmlns:xlink="http://www.w3.org/1999/xlink"><style type="text/css">
	.st0{fill:#F3B589;}
	.st1{fill:#E5C6AA;}
	.st2{opacity:0.1;}
	.st3{fill:#EFD2B6;}
	.st4{fill:#2C2215;}
	.st5{fill:#3F3932;}
</style><g><g><g><path class="st0" d="M-147.9,484.7l105.1,60.7c1.1,0.6,2.5,0.6,3.6,0l105.1-60.7c1.1-0.6,1.8-1.8,1.8-3.1V360.2     c0-1.3-0.7-2.5-1.8-3.1l-105.1-60.7c-1.1-0.6-2.5-0.6-3.6,0l-105.1,60.7c-1.1,0.6-1.8,1.8-1.8,3.1v121.4     C-149.7,482.9-149,484.1-147.9,484.7z"/></g></g><path class="st1" d="M6.6,497.9c-3.3-0.9-8.5-1.5-15.3-1.8c-3.4-0.2-6.4-2.2-7.8-5.2c-1.8-3.9-3.4-8.2-3.4-12.6   c0-19.3,29.5-34.9-20-35.4l0,0c-0.4,0-0.8,0-1.1,0c-0.4,0-0.7,0-1.1,0l0,0c-49.5,0.5-20,16.1-20,35.4c0,4.4-1.6,8.7-3.4,12.6   c-1.4,3.1-4.4,5.1-7.8,5.2c-6.8,0.3-12,0.8-15.3,1.8c-7.8,2.2-13.1,6.4-16.7,11.3l62.6,36.1c1.1,0.6,2.5,0.6,3.6,0l62.6-36.1   C19.7,504.4,14.5,500.1,6.6,497.9z"/><g class="st2"><path d="M-19.6,475.9c0.6-4.6,2.6-9,4.6-13c-8.2,7.9-17.4,12.6-25.9,12.6s-17.8-4.9-26-12.9c2,4,4.1,8.5,4.7,13.2    c7,5.5,14.4,12.8,21.3,12.8S-26.6,481.3-19.6,475.9z"/></g><path class="st3" d="M6.8,409.7c0,35.9-26.5,67.9-47.8,67.6c-21.2-0.3-47.5-33.1-47.8-68.1c-0.4-35.9,17.1-57.7,47.8-57.7   S6.8,373.8,6.8,409.7z"/><path class="st4" d="M0.6,495.9l-33.9,37c-4.1,4.4-11.1,4.4-15.3,0l-33.9-37c-0.1-0.1-0.2-0.1-0.4-0.1l-36.7,5.2l76.9,44.4   c1.1,0.6,2.5,0.6,3.6,0L37.8,501l-36.7-5.2C0.8,495.8,0.7,495.8,0.6,495.9z"/><path class="st5" d="M-36,343.5c-1.7-0.1-3.3-0.1-5-0.1c-1.6,0-3.3,0-5,0.1c-36.8,2.6-53.5,50.2-50.2,67.9   c2.2,11.9,13,44.4,16.1,53.7c0.5,1.5,0.4,1.8,0.4-0.1c0-22.7-2.3-52.1,0.5-56.5c4.1-6.4,1.1-16.5,0.2-19.3   c-0.1-0.3,0.1-0.7,0.5-0.7c15,0.7,27,6.7,36.5,7.4v0.2c0.3,0,0.7-0.1,1.1-0.1c0,0,0,0,0.1,0c0.4,0,0.7,0.1,1.1,0.1v-0.2   c9.5-0.7,21.5-6.7,36.5-7.4c0.3,0,0.6,0.3,0.5,0.7c-0.9,2.7-3.8,12.9,0.2,19.3c2.8,4.3,0.6,33.7,0.6,56.5c0,1.9-0.1,1.6,0.4,0.1   c3.1-9.3,13.7-41.7,15.9-53.7C17.5,393.6,0.8,346-36,343.5z"/></g></svg>