<?xml version="1.0" ?><!DOCTYPE svg  PUBLIC '-//W3C//DTD SVG 1.1//EN'  'http://www.w3.org/Graphics/SVG/1.1/DTD/svg11.dtd'><svg id="Lager_1" style="enable-background:new 0 0 256 256;" version="1.1" viewBox="0 0 256 256" xml:space="preserve" xmlns="http://www.w3.org/2000/svg" xmlns:xlink="http://www.w3.org/1999/xlink"><g><g><path d="M21.1,191.8l105.1,60.7c1.1,0.6,2.5,0.6,3.6,0l105.1-60.7c1.1-0.6,1.8-1.8,1.8-3.1V67.3    c0-1.3-0.7-2.5-1.8-3.1L129.8,3.5c-1.1-0.6-2.5-0.6-3.6,0L21.1,64.2c-1.1,0.6-1.8,1.8-1.8,3.1v121.4C19.3,190,20,191.2,21.1,191.8    z" style="fill:#83807E;"/></g><path d="M197.5,206.2l-32.6-5.3c0,0,0,0-0.1,0l-0.3-0.4c-38.4,5.4-72.5,0.3-73.3,0l-0.4,0.4l-32.5,5.3   c-1.6,0.3-3.2,2.1-4.7,4.5l72.4,41.8c1.1,0.6,2.5,0.6,3.6,0l72.4-41.8C200.7,208.3,199.1,206.5,197.5,206.2z" style="fill:#5F5B57;"/><path d="M95.8,202.8c-0.9,0-1.9,0.1-2.9,0.1l28.4,35.1c3.6,4.4,9.8,4.4,13.4,0l28.4-35.2   c-0.9,0-1.9-0.1-2.7-0.1c-3.4-0.2-6.4-2.2-7.8-5.2c-1.8-3.9-3.4-8.2-3.4-12.6c0-19.3,29.5-34.9-20-35.4v0c-0.4,0-0.8,0-1.1,0   c-0.4,0-0.7,0-1.1,0v0c-49.5,0.5-20,16.1-20,35.4c0,4.4-1.6,8.7-3.4,12.6C102.1,200.6,99.1,202.7,95.8,202.8z" style="fill:#D89E6F;"/><g style="opacity:0.1;"><path d="M149.4,182.5c0.6-4.6,2.6-9,4.6-13c-8.2,7.9-17.4,12.6-25.9,12.6c-8.5,0-17.8-4.9-26-12.9c2,4,4.1,8.5,4.7,13.2    c7,5.5,14.4,12.8,21.3,12.8C135,195.2,142.4,188,149.4,182.5z"/></g><path d="M175.8,116.4c0,35.9-26.5,67.9-47.8,67.6c-21.2-0.3-47.5-33.1-47.8-68.1C79.8,80,97.3,58.1,128,58.1   S175.8,80.5,175.8,116.4z" style="fill:#E2A771;"/><path d="M123,54.2c1.7-0.1,3.3-0.1,5-0.1c1.6,0,3.3,0,5,0.1c36.8,2.6,53.5,50.2,50.2,67.9   c-2.2,11.9-13,54.3-16.1,63.7c-0.5,1.5-0.4,1.8-0.4-0.1c0-22.7,0.6-39.2-2.2-43.5c-0.1-0.2-0.2-0.3-0.3-0.5   c-1.7,6.5-5.3,8.9-8.8,13.9c-0.3,0.4-0.9,0.1-0.8-0.4c1.6-6.4,6-25.6,4.1-42.4c0-0.1-0.1-0.2-0.1-0.2c-4.6-5.4-1.7-11.6-0.5-14.2   c0.2-0.3-0.1-0.7-0.5-0.6c-8.3,2-40,10.8-49.8,30.3c-0.2,0.4-0.8,0.3-0.8-0.1c-0.3-1.3-0.7-3.6-0.9-6.5c0-0.4-0.6-0.6-0.8-0.2   c-8.9,13.8-7.8,29.4-7.4,34.6c0,0.4-0.5,0.6-0.7,0.2c-1.1-2-3.6-5.7-6.3-11.1c-0.2-0.4-0.8-0.3-0.9,0.2   c-0.8,19.9-1.1,46.2-1.1,59.8c0,1.9,0.1,1.6-0.4,0.1c-3.1-9.3-13.7-70.8-15.9-82.7C69.5,104.4,86.2,56.8,123,54.2z" style="fill:#F9D964;"/></g></svg>